Patient4_TMGait_0pt4_02_right_07_EMG.mot
version=1
nRows=26
nColumns=33
inDegrees=no
endheader
time	1LAddLong	2LGlutMax	3LGlutMed	4LIliopsoas	5LSemiMemb	6LBicFemLong	7LRecFem	8LVastMed	9LVastLat	10LGasMed	11LTibAnt	12lTibPost	13LPeroneusLong	14LSol	15LExtDigLong	16LFlexDigLong	17RAddLong	18RGlutMax	19RGlutMed	20RIliopsoas	21RSemiMemb	22RBicFemLong	23RRecFem	24RVastMed	25RVastLat	26RGasMed	27RTibAnt	28RTibPost	29RPeroneusLong	30RSol	31RExtDigLong	32RFlexDigLong
9.695	-0.005493	-0.001831	-0.027161	-0.002899	-0.038757	0.029907	0.007477	-0.006866	0.003204	0.025787	0.002899	0.012817	-0.02243	0.078888	0.016785	-0.004578	-0.002594	0.016327	0.056	0.02533	-0.12848	-0.28915	-0.062866	-0.078888	0.013885	-0.002136	-0.10559	-0.003204	0.14069	0.04776	0.005951	-0.014496
9.696	-0.021667	0.02655	0.015717	0.011292	-0.050201	-0.008392	0.084381	-0.019989	-0.054779	0.02533	0.003357	0.015106	-0.010681	0.031433	0.005951	-0.002747	-0.022888	0.088654	-0.010834	0.052185	-0.15137	-0.40329	-0.034943	-0.008698	0.016937	0.001373	-0.055695	-0.000458	-0.17563	-0.027313	0.002441	-0.02243
9.697	-0.018311	0.015869	-0.019836	0.004883	-0.02121	-0.10208	0.093079	-0.009155	-0.044098	0.025177	-0.005188	0.016022	-0.006561	0.050812	0.007629	0.000153	-0.043793	0.096741	-0.016785	0.002747	0.1149	-0.51605	-0.016327	0.001526	0.023041	0.014954	-0.071869	-0.004425	-0.39307	-0.043793	-0.00412	-0.016785
9.698	-0.044556	-0.00061	0.024872	0.012512	-0.016022	-0.1149	0.056458	-0.004883	0.007629	0.028992	-0.006866	0.023041	-0.019989	0.057526	0.005188	-0.007935	-0.041809	0.054474	-0.018768	0.006104	0.25146	-0.49469	-0.015717	-0.000763	0.014801	0.024872	-0.022125	-0.011292	-0.36423	-0.059204	0.001831	-0.020599
9.699	-0.022278	0.014954	0.009155	0.009155	-0.02182	0.024567	0.011292	0.008545	0.010681	0.015106	-0.009766	0.017395	-0.025482	0.032501	0.001526	0.001526	-0.057068	0.076752	0.001526	0.000305	0.15869	-0.25055	-0.046844	-0.023499	0.036774	0.018616	0.008545	-0.009003	0.14465	-0.25101	0.006104	-0.020752
9.7	-0.027313	0.053253	0.042267	0.007935	-0.02655	0.04776	-0.021057	0.004883	-0.00351	0.012817	-0.003967	0.02594	-0.008087	0.055695	0.000916	-0.005798	-0.067596	0.052795	0.050659	-0.066833	0.103	-0.037994	0.009613	-0.072632	0.03006	0.005493	-0.014191	-0.010986	0.27786	-0.29968	0.000458	-0.022736
9.701	-0.031738	0.061798	-0.020447	0.011749	-0.077667	0.1181	-0.010071	-0.001831	0.009003	0.006714	-0.006409	0.028534	-0.001068	0.034027	0.002289	-0.010071	-0.058594	0.062561	0.17136	-0.006866	0.086365	0.091858	0.020599	-0.082245	0.037689	-0.013428	0.000763	-0.011444	0.31876	0.012207	0	-0.021362
9.702	-0.0177	0.052338	0.049133	0.022888	-0.1265	0.17364	-0.049438	-0.004883	0.030823	0.013123	0.003052	0.02121	0.016174	0.033264	-0.005493	-0.001831	-0.038605	0.066223	0.086212	0.15625	-0.057678	0.32608	0.007172	-0.085449	0.025177	-0.019989	0.033417	-0.006104	0.29144	0.41779	0.001068	-0.023956
9.703	-0.029907	0.037079	0.037994	0.00351	-0.091705	0.28336	-0.036774	0.007629	0.017548	0.018005	0.006866	0.027924	-0.012817	0.04837	-0.000916	-0.002289	-0.005798	-0.04837	0.001831	0.14008	0.10193	0.5629	0.036011	-0.057373	0.028839	-0.077209	0.026855	-0.011292	0.38803	0.17563	0.000153	-0.025635
9.704	-0.015564	0.025787	0.038147	0.001526	-0.026703	0.27313	-0.055847	0.013123	0.007324	0.018616	0.010223	0.027313	0.014496	0.083771	0.004425	-0.002594	-0.003052	0.00824	-0.022736	0.077057	0.069122	0.7016	-0.015106	-0.061188	0.032654	-0.083771	0.005493	-0.028992	0.3389	-0.19302	0.000153	-0.025635
9.705	0.025482	0.037231	-0.010529	0.00885	0.014648	0.16663	-0.02533	0.010681	0.033875	0.013123	0.002899	0.031433	-0.018158	0.12772	0.016327	-0.005341	0.018463	0.014954	-0.048828	0.014648	0.047455	0.41153	-0.043182	-0.040741	0.028687	-0.068817	0.00473	-0.018158	-0.10269	-0.38834	-0.000305	-0.025024
9.706	0.031891	0.078278	0.078278	0.016479	0.075989	-0.026245	-0.043945	0.016022	0.035553	0.02594	0.003967	0.037842	-0.09079	0.11368	0.027161	-0.004883	0.046387	-0.02182	0.007935	-0.037079	-0.075378	0.20981	-0.059052	-0.002594	0.033722	-0.010834	0.033875	0.032043	-0.032654	-0.022888	0.00351	-0.038147
9.707	0.041962	0.041962	0.10086	0.017548	-0.030365	-0.11856	-0.11322	0.007629	0.022888	0.025787	0.002594	0.046997	-0.091095	0.073242	0.014496	-0.007629	0.072174	-0.055389	0.10437	-0.002899	-0.079651	0.068817	-0.06134	0.082397	0.044098	0.005798	0.063324	0.035248	0.090179	0.17593	0.000916	-0.030975
9.708	0.045013	0.020599	0.079803	0.009155	-0.040741	-0.18173	-0.14297	-0.00885	0.15854	0.006866	-0.001373	0.053253	-0.082703	0.058289	0.031891	-0.00946	0.070038	-0.069122	0.12756	0.02533	0.062561	-0.02182	-0.040436	0.058289	0.033722	0.019989	0.034637	-0.019073	-0.012054	0.26947	0.007019	-0.016327
9.709	0.037537	0.01358	0.13733	0.003357	0.096588	-0.39505	-0.10666	-0.014343	0.25757	0.015717	0.010529	0.074005	-0.026703	0.00061	0.045013	-0.00885	0.083313	-0.048981	0.096436	-0.027771	0.019226	-0.07431	-0.020905	0.021973	0.014648	0.075073	0.013885	-0.020752	0.16998	0.35202	0.000458	-0.014801
9.71	0.018158	0.009003	0.10178	0.004883	0.1944	-0.44784	-0.032349	-0.010986	0.19272	0.023193	0.013733	0.088654	-0.010223	0.020447	0.049438	-0.013733	0.056	-0.041351	0.060577	0.029602	-0.050507	-0.12589	-0.00412	-0.015869	0.005188	0.03418	0.018616	-0.004578	0.093994	0.13794	0.00061	-0.0177
9.711	0.017853	0.048828	0.055695	0.006561	0.14175	-0.097504	0.021362	-0.009766	0.049591	0.023804	0.007935	0.10956	0.027466	0.003815	0.003357	0.004578	0.045929	-0.058441	0.05188	0.050049	-0.021057	-0.12054	-0.014496	-0.002289	-0.009003	-0.011292	0.040283	-0.011444	0.05249	-0.090942	0.002289	-0.016937
9.712	0.005035	0.034485	0.014801	0.013885	0.10559	0.19043	-0.013275	-0.00351	0.072784	0.024414	-0.000458	0.10986	0.03006	-0.029755	-0.017395	0.018311	0.028839	-0.053864	0.10071	0.071564	0.021515	-0.08667	0.02594	-0.027618	0.005341	0.019989	0.024414	0.001526	0.062103	0.034637	0.003204	-0.010071
9.713	0.004272	0.1062	0.008392	0.024414	0.00946	0.16083	-0.012207	0.005188	0.21973	0.014343	0.002747	0.099792	0.074768	-0.034332	-0.013275	0.030823	0.001831	-0.054932	0.17914	0.054626	0.028076	-0.024414	0.005035	-0.032043	0.017395	0.022888	0.051575	-0.007782	-0.058441	0.14236	0.00824	-0.00412
9.714	-0.019684	0.12787	0.020447	0.010681	-0.1091	0.14252	-0.001373	0.013885	0.27374	0.023956	-0.002594	0.10376	0.14771	-0.032349	0.002441	0.041351	0.005646	-0.011292	0.11749	-0.009308	0.00824	0.018158	-0.007019	-0.025635	0.015717	0.027008	0.065918	0.00473	-0.014648	0.13779	0.002747	-0.005646
9.715	-0.002747	0.12039	0.017395	-0.005798	-0.078735	-0.022125	-0.050659	0.015259	0.24109	0.02594	-0.002747	0.084839	0.15015	0.016632	0.007172	0.058136	0.01709	-0.040741	0.18387	-0.071106	-0.075684	-0.020599	0.026245	-0.078735	0.01297	0.031738	0.029602	0.081482	0.20447	0.057831	0	-0.003815
9.716	-0.001984	0.15427	0.02182	0.010071	0.032043	-0.16464	-0.12238	0.011292	0.15564	0.032043	-0.016174	0.072327	0.15442	0.062103	0.007629	0.067291	0.023804	-0.078583	0.16296	-0.12222	-0.17242	0.06897	0.038757	-0.04715	0.006409	0.036316	0.043945	0.041656	-0.063934	0.26947	0.00473	-0.004578
9.717	0.017395	0.19134	-0.011902	0.010529	0.036621	-0.22247	-0.15518	0.005646	-0.098267	0.015717	-0.015259	0.047913	0.15091	0.10162	0.003204	0.0737	0.021973	-0.054016	0.096436	-0.11566	-0.1181	0.096283	0.016479	-0.027771	0.014191	0.017395	0.053406	0.052032	-0.33997	0.18646	0.001831	-0.003357
9.718	0.039825	0.20569	-0.036316	-0.000153	0.028229	-0.22156	-0.047302	-0.01297	-0.3479	-0.012207	-0.010681	0.02121	0.12253	0.11047	-0.028076	0.075073	0.030518	-0.052185	0.043182	-0.090179	0.041809	0.047913	0.073395	-0.036926	0.009003	0.015411	0.013275	-0.17258	-0.15335	-0.10742	0.000763	-0.001373
9.719	0.034332	0.15472	-0.053558	0.010681	0.014343	-0.050201	0.07431	0.029297	-0.36743	-0.012817	0.014191	-0.00412	-0.063629	0.11765	-0.082245	0.058289	0.036774	-0.080719	0.11826	-0.010986	0.047302	0.020294	0.061035	-0.067749	-0.013275	-0.026855	-0.013123	-0.27756	0.1831	-0.46906	0.001831	-0.001984
9.72	0.028534	0.18662	-0.052795	0.002441	0.084076	0.13565	0.11414	-0.027618	-0.35629	-0.016174	0.031738	-0.009613	-0.13931	0.12192	-0.05188	0.051117	0.018463	-0.10284	0.15686	0.016785	-0.032959	-0.030518	0.075684	-0.080414	0.007782	-0.038147	-0.010071	-0.1767	0.45807	-0.58716	0.002136	-0.005951
